_states
version=1
nRows=4
nColumns=205
inDegrees=yes

# SIMM Motion File Header:
name _states
datacolumns 205
datarows 4
otherdata 1
range 0.52951696 0.53191486
endheader
time	/jointset/ground_pelvis/pelvis_tilt/value	/jointset/ground_pelvis/pelvis_tilt/speed	/jointset/ground_pelvis/pelvis_list/value	/jointset/ground_pelvis/pelvis_list/speed	/jointset/ground_pelvis/pelvis_rotation/value	/jointset/ground_pelvis/pelvis_rotation/speed	/jointset/ground_pelvis/pelvis_tx/value	/jointset/ground_pelvis/pelvis_tx/speed	/jointset/ground_pelvis/pelvis_ty/value	/jointset/ground_pelvis/pelvis_ty/speed	/jointset/ground_pelvis/pelvis_tz/value	/jointset/ground_pelvis/pelvis_tz/speed	/jointset/hip_r/hip_flexion_r/value	/jointset/hip_r/hip_flexion_r/speed	/jointset/hip_r/hip_adduction_r/value	/jointset/hip_r/hip_adduction_r/speed	/jointset/hip_r/hip_rotation_r/value	/jointset/hip_r/hip_rotation_r/speed	/jointset/walker_knee_r/knee_angle_r/value	/jointset/walker_knee_r/knee_angle_r/speed	/jointset/patellofemoral_r/knee_angle_r_beta/value	/jointset/patellofemoral_r/knee_angle_r_beta/speed	/jointset/ankle_r/ankle_angle_r/value	/jointset/ankle_r/ankle_angle_r/speed	/jointset/subtalar_r/subtalar_angle_r/value	/jointset/subtalar_r/subtalar_angle_r/speed	/jointset/mtp_r/mtp_angle_r/value	/jointset/mtp_r/mtp_angle_r/speed	/jointset/hip_l/hip_flexion_l/value	/jointset/hip_l/hip_flexion_l/speed	/jointset/hip_l/hip_adduction_l/value	/jointset/hip_l/hip_adduction_l/speed	/jointset/hip_l/hip_rotation_l/value	/jointset/hip_l/hip_rotation_l/speed	/jointset/walker_knee_l/knee_angle_l/value	/jointset/walker_knee_l/knee_angle_l/speed	/jointset/patellofemoral_l/knee_angle_l_beta/value	/jointset/patellofemoral_l/knee_angle_l_beta/speed	/jointset/ankle_l/ankle_angle_l/value	/jointset/ankle_l/ankle_angle_l/speed	/jointset/subtalar_l/subtalar_angle_l/value	/jointset/subtalar_l/subtalar_angle_l/speed	/jointset/mtp_l/mtp_angle_l/value	/jointset/mtp_l/mtp_angle_l/speed	/jointset/back/lumbar_extension/value	/jointset/back/lumbar_extension/speed	/jointset/back/lumbar_bending/value	/jointset/back/lumbar_bending/speed	/jointset/back/lumbar_rotation/value	/jointset/back/lumbar_rotation/speed	/jointset/acromial_r/arm_flex_r/value	/jointset/acromial_r/arm_flex_r/speed	/jointset/acromial_r/arm_add_r/value	/jointset/acromial_r/arm_add_r/speed	/jointset/acromial_r/arm_rot_r/value	/jointset/acromial_r/arm_rot_r/speed	/jointset/elbow_r/elbow_flex_r/value	/jointset/elbow_r/elbow_flex_r/speed	/jointset/radioulnar_r/pro_sup_r/value	/jointset/radioulnar_r/pro_sup_r/speed	/jointset/radius_hand_r/wrist_flex_r/value	/jointset/radius_hand_r/wrist_flex_r/speed	/jointset/radius_hand_r/wrist_dev_r/value	/jointset/radius_hand_r/wrist_dev_r/speed	/jointset/acromial_l/arm_flex_l/value	/jointset/acromial_l/arm_flex_l/speed	/jointset/acromial_l/arm_add_l/value	/jointset/acromial_l/arm_add_l/speed	/jointset/acromial_l/arm_rot_l/value	/jointset/acromial_l/arm_rot_l/speed	/jointset/elbow_l/elbow_flex_l/value	/jointset/elbow_l/elbow_flex_l/speed	/jointset/radioulnar_l/pro_sup_l/value	/jointset/radioulnar_l/pro_sup_l/speed	/jointset/radius_hand_l/wrist_flex_l/value	/jointset/radius_hand_l/wrist_flex_l/speed	/jointset/radius_hand_l/wrist_dev_l/value	/jointset/radius_hand_l/wrist_dev_l/speed	/forceset/addbrev_r/activation	/forceset/addlong_r/activation	/forceset/addlong_r/fiber_length	/forceset/addmagDist_r/activation	/forceset/addmagIsch_r/activation	/forceset/addmagIsch_r/fiber_length	/forceset/addmagMid_r/activation	/forceset/addmagProx_r/activation	/forceset/bflh_r/activation	/forceset/bflh_r/fiber_length	/forceset/bfsh_r/activation	/forceset/edl_r/activation	/forceset/edl_r/fiber_length	/forceset/ehl_r/activation	/forceset/ehl_r/fiber_length	/forceset/fdl_r/activation	/forceset/fdl_r/fiber_length	/forceset/fhl_r/activation	/forceset/fhl_r/fiber_length	/forceset/gaslat_r/activation	/forceset/gaslat_r/fiber_length	/forceset/gasmed_r/activation	/forceset/gasmed_r/fiber_length	/forceset/glmax1_r/activation	/forceset/glmax2_r/activation	/forceset/glmax3_r/activation	/forceset/glmed1_r/activation	/forceset/glmed2_r/activation	/forceset/glmed3_r/activation	/forceset/glmin1_r/activation	/forceset/glmin2_r/activation	/forceset/glmin3_r/activation	/forceset/glmin3_r/fiber_length	/forceset/grac_r/activation	/forceset/iliacus_r/activation	/forceset/perbrev_r/activation	/forceset/perbrev_r/fiber_length	/forceset/perlong_r/activation	/forceset/perlong_r/fiber_length	/forceset/piri_r/activation	/forceset/piri_r/fiber_length	/forceset/psoas_r/activation	/forceset/recfem_r/activation	/forceset/recfem_r/fiber_length	/forceset/sart_r/activation	/forceset/semimem_r/activation	/forceset/semimem_r/fiber_length	/forceset/semiten_r/activation	/forceset/semiten_r/fiber_length	/forceset/soleus_r/activation	/forceset/soleus_r/fiber_length	/forceset/tfl_r/activation	/forceset/tfl_r/fiber_length	/forceset/tibant_r/activation	/forceset/tibant_r/fiber_length	/forceset/tibpost_r/activation	/forceset/tibpost_r/fiber_length	/forceset/vasint_r/activation	/forceset/vasint_r/fiber_length	/forceset/vaslat_r/activation	/forceset/vaslat_r/fiber_length	/forceset/vasmed_r/activation	/forceset/vasmed_r/fiber_length	/forceset/addbrev_l/activation	/forceset/addlong_l/activation	/forceset/addlong_l/fiber_length	/forceset/addmagDist_l/activation	/forceset/addmagIsch_l/activation	/forceset/addmagIsch_l/fiber_length	/forceset/addmagMid_l/activation	/forceset/addmagProx_l/activation	/forceset/bflh_l/activation	/forceset/bflh_l/fiber_length	/forceset/bfsh_l/activation	/forceset/edl_l/activation	/forceset/edl_l/fiber_length	/forceset/ehl_l/activation	/forceset/ehl_l/fiber_length	/forceset/fdl_l/activation	/forceset/fdl_l/fiber_length	/forceset/fhl_l/activation	/forceset/fhl_l/fiber_length	/forceset/gaslat_l/activation	/forceset/gaslat_l/fiber_length	/forceset/gasmed_l/activation	/forceset/gasmed_l/fiber_length	/forceset/glmax1_l/activation	/forceset/glmax2_l/activation	/forceset/glmax3_l/activation	/forceset/glmed1_l/activation	/forceset/glmed2_l/activation	/forceset/glmed3_l/activation	/forceset/glmin1_l/activation	/forceset/glmin2_l/activation	/forceset/glmin3_l/activation	/forceset/glmin3_l/fiber_length	/forceset/grac_l/activation	/forceset/iliacus_l/activation	/forceset/perbrev_l/activation	/forceset/perbrev_l/fiber_length	/forceset/perlong_l/activation	/forceset/perlong_l/fiber_length	/forceset/piri_l/activation	/forceset/piri_l/fiber_length	/forceset/psoas_l/activation	/forceset/recfem_l/activation	/forceset/recfem_l/fiber_length	/forceset/sart_l/activation	/forceset/semimem_l/activation	/forceset/semimem_l/fiber_length	/forceset/semiten_l/activation	/forceset/semiten_l/fiber_length	/forceset/soleus_l/activation	/forceset/soleus_l/fiber_length	/forceset/tfl_l/activation	/forceset/tfl_l/fiber_length	/forceset/tibant_l/activation	/forceset/tibant_l/fiber_length	/forceset/tibpost_l/activation	/forceset/tibpost_l/fiber_length	/forceset/vasint_l/activation	/forceset/vasint_l/fiber_length	/forceset/vaslat_l/activation	/forceset/vaslat_l/fiber_length	/forceset/vasmed_l/activation	/forceset/vasmed_l/fiber_length
      0.52951696	      3.77028231	     -0.00000000	     -9.06686345	     -0.00000000	      3.70908125	     -0.00000000	      0.04484839	      0.00000000	      1.01158335	      0.00000000	     -0.22340009	      0.00000000	    -24.80178438	     -6.67435199	     -9.50743723	     41.03741375	     13.22192144	    -24.27930389	    -77.57924309	   -137.86853340	     -1.35401322	     -2.40625984	    -49.24034512	   -961.62907019	      0.00000000	     -0.00000000	      0.00000000	     -0.00000000	     -4.95635766	      0.00000000	    -16.61136772	      0.00000000	     -8.43483485	      0.00000000	     50.95238787	      0.00000000	      0.88928693	      0.00000000	    -18.90207533	      0.00000000	     -0.00000000	     -0.00000000	     -0.00000000	     -0.00000000	     -9.37291115	      0.00000000	     10.92884679	      0.00000000	     -3.91548356	      0.00000000	    -10.14984650	      0.00000000	    -11.05969488	      0.00000000	    -13.98141467	      0.00000000	     29.92648919	     -0.00000000	     30.75836834	     -0.00000000	     -0.00000000	      0.00000000	      0.00000000	      0.00000000	     -0.13766342	     -0.00000000	     -9.87893544	     -0.00000000	    -12.94888169	      0.00000000	     30.67721746	     -0.00000000	     30.30944903	     -0.00000000	      0.00000000	     -0.00000000	      0.00000000	      0.00000000	      0.02000000	      0.02000000	      0.14991254	      0.02000000	      0.02000000	      0.13052713	      0.02000000	      0.02000000	      0.02000000	      0.09989053	      0.02000000	      0.02202709	      0.09713913	      0.02200205	      0.10826019	      0.02000000	      0.03569046	      0.02000000	      0.03660080	      0.02000000	      0.06282472	      0.02000000	      0.02254752	      0.02000960	      0.02000919	      0.02000000	      0.77609811	      0.25692169	      0.10506665	      0.21385000	      0.11406872	      0.02000000	      0.03583484	      0.02000000	      0.08999315	      0.02000000	      0.04272144	      0.02000000	      0.04677192	      0.03894520	      0.02601213	      0.02000000	      0.08888109	      0.02210170	      0.02000000	      0.02000000	      0.05186204	      0.02000000	      0.20348657	      0.02371609	      0.01994498	      0.03782453	      0.08080448	      0.02007281	      0.10147574	      0.02000000	      0.03071083	      0.02001143	      0.03069343	      0.02005700	      0.03535930	      0.02003146	      0.02980314	      0.02200411	      0.02408235	      0.14296145	      0.02000000	      0.02000000	      0.14587394	      0.02000000	      0.02002119	      0.02000000	      0.06819645	      0.31366807	      0.36867100	      0.07640830	      0.05741242	      0.09413056	      0.02000000	      0.04334725	      0.02000000	      0.04679110	      0.02010271	      0.04296609	      0.02014356	      0.03415412	      0.02000000	      0.02000000	      0.02000000	      0.02000000	      0.02000000	      0.02003516	      0.05954954	      0.04469673	      0.02401402	      0.02327889	      0.12307268	      0.45316141	      0.02000000	      0.04908760	      0.02000000	      0.05351535	      0.02206342	      0.01102020	      0.39382767	      0.02000000	      0.10521578	      0.32799444	      0.02208711	      0.03231223	      0.02207245	      0.18738923	      0.02000000	      0.03552912	      0.25320424	      0.09386187	      0.82165248	      0.07594836	      0.02000000	      0.03834012	      0.02000000	      0.12759360	      0.02000000	      0.12270871	      0.02000000	      0.11631155
      0.53031626	      3.77028231	      0.00000000	     -9.06686345	      0.00000000	      3.70908125	     -0.00000000	      0.04484839	      0.00000000	      1.01158335	      0.00000000	     -0.22340009	      0.00000000	    -24.80721674	     -6.92193612	     -9.47450639	     41.36270054	     13.20310910	    -22.78215725	    -77.69036549	   -140.16722356	     -1.35595267	     -2.44637955	    -50.01635036	   -980.08335786	      0.00000000	      0.00000000	      0.00000000	      0.00000000	     -4.95635766	      0.00000000	    -16.61136772	      0.00000000	     -8.43483485	      0.00000000	     50.95238787	      0.00000000	      0.88928693	     -0.00000000	    -18.90207533	      0.00000000	     -0.00000000	     -0.00000000	     -0.00000000	     -0.00000000	     -9.37291115	      0.00000000	     10.92884679	      0.00000000	     -3.91548356	      0.00000000	    -10.14984650	      0.00000000	    -11.05969488	      0.00000000	    -13.98141467	      0.00000000	     29.92648919	     -0.00000000	     30.75836834	      0.00000000	     -0.00000000	     -0.00000000	      0.00000000	      0.00000000	     -0.13766342	     -0.00000000	     -9.87893544	      0.00000000	    -12.94888169	      0.00000000	     30.67721746	      0.00000000	     30.30944903	      0.00000000	      0.00000000	      0.00000000	      0.00000000	     -0.00000000	      0.02000000	      0.02000000	      0.14989071	      0.02000000	      0.02000000	      0.13049943	      0.02000000	      0.02000000	      0.02000000	      0.09983582	      0.02000000	      0.02202680	      0.09739528	      0.02200203	      0.10852816	      0.02000000	      0.03553682	      0.02000000	      0.03643318	      0.02000000	      0.06259812	      0.02000000	      0.02246656	      0.02000949	      0.02000909	      0.02000000	      0.77609811	      0.25692169	      0.10506665	      0.21385000	      0.11406872	      0.02000000	      0.03584176	      0.02000000	      0.08999315	      0.02000000	      0.04256026	      0.02000000	      0.04660463	      0.03894505	      0.02600383	      0.02000000	      0.08888109	      0.02210028	      0.02000000	      0.02000000	      0.05170867	      0.02000000	      0.20329192	      0.02371609	      0.01986243	      0.03782387	      0.08080112	      0.02007204	      0.10171955	      0.02000000	      0.03057659	      0.02001131	      0.03068999	      0.02005639	      0.03538096	      0.02003113	      0.02980024	      0.02200407	      0.02408147	      0.14296146	      0.02000000	      0.02000000	      0.14587394	      0.02000000	      0.02002097	      0.02000000	      0.06819645	      0.31366807	      0.36867100	      0.07640830	      0.05741242	      0.09413056	      0.02000000	      0.04334725	      0.02000000	      0.04679110	      0.02010162	      0.04296612	      0.02014204	      0.03415417	      0.02000000	      0.02000000	      0.02000000	      0.02000000	      0.02000000	      0.02003479	      0.05954954	      0.04469673	      0.02401387	      0.02327889	      0.12307262	      0.45316141	      0.02000000	      0.04908760	      0.02000000	      0.05351535	      0.02206274	      0.01102020	      0.39382767	      0.02000000	      0.10521578	      0.32799444	      0.02208619	      0.03231225	      0.02207169	      0.18738925	      0.02000000	      0.03552912	      0.25320424	      0.09386187	      0.82165248	      0.07594836	      0.02000000	      0.03834012	      0.02000000	      0.12759360	      0.02000000	      0.12270871	      0.02000000	      0.11631155
      0.53111556	      3.77028231	      0.00000000	     -9.06686345	      0.00000000	      3.70908125	     -0.00000000	      0.04484839	      0.00000000	      1.01158335	      0.00000000	     -0.22340009	      0.00000000	    -24.81285367	     -7.18729644	     -9.44131719	     41.68129512	     13.18551754	    -21.22519927	    -77.80328265	   -142.34936785	     -1.35792345	     -2.48446516	    -50.80693347	   -998.02103991	      0.00000000	      0.00000000	      0.00000000	     -0.00000000	     -4.95635766	      0.00000000	    -16.61136772	      0.00000000	     -8.43483485	      0.00000000	     50.95238787	     -0.00000000	      0.88928693	     -0.00000000	    -18.90207533	     -0.00000000	     -0.00000000	      0.00000000	     -0.00000000	     -0.00000000	     -9.37291115	      0.00000000	     10.92884679	      0.00000000	     -3.91548356	      0.00000000	    -10.14984650	      0.00000000	    -11.05969488	      0.00000000	    -13.98141467	      0.00000000	     29.92648919	     -0.00000000	     30.75836834	      0.00000000	     -0.00000000	      0.00000000	      0.00000000	      0.00000000	     -0.13766342	      0.00000000	     -9.87893544	      0.00000000	    -12.94888169	     -0.00000000	     30.67721746	     -0.00000000	     30.30944903	     -0.00000000	      0.00000000	      0.00000000	      0.00000000	     -0.00000000	      0.02000000	      0.02000000	      0.14986872	      0.02000000	      0.02000000	      0.13047149	      0.02000000	      0.02000000	      0.02000000	      0.09978002	      0.02000000	      0.02202652	      0.09765284	      0.02200201	      0.10879768	      0.02000000	      0.03538338	      0.02000000	      0.03626616	      0.02000000	      0.06237173	      0.02000000	      0.02238644	      0.02000939	      0.02000899	      0.02000000	      0.77609811	      0.25692169	      0.10506665	      0.21385000	      0.11406872	      0.02000000	      0.03584956	      0.02000000	      0.08999315	      0.02000000	      0.04239748	      0.02000000	      0.04643522	      0.03894489	      0.02599606	      0.02000000	      0.08888109	      0.02209887	      0.02000000	      0.02000000	      0.05155247	      0.02000000	      0.20309387	      0.02371609	      0.01978077	      0.03782321	      0.08079763	      0.02007128	      0.10207277	      0.02000000	      0.03044256	      0.02001119	      0.03068657	      0.02005580	      0.03540353	      0.02003080	      0.02979735	      0.02200403	      0.02408060	      0.14296147	      0.02000000	      0.02000000	      0.14587394	      0.02000000	      0.02002075	      0.02000000	      0.06819645	      0.31366807	      0.36867100	      0.07640830	      0.05741242	      0.09413056	      0.02000000	      0.04334725	      0.02000000	      0.04679110	      0.02010055	      0.04296616	      0.02014055	      0.03415421	      0.02000000	      0.02000000	      0.02000000	      0.02000000	      0.02000000	      0.02003443	      0.05954954	      0.04469673	      0.02401372	      0.02327889	      0.12307256	      0.45316141	      0.02000000	      0.04908760	      0.02000000	      0.05351535	      0.02206208	      0.01102020	      0.39382767	      0.02000000	      0.10521578	      0.32799444	      0.02208527	      0.03231226	      0.02207093	      0.18738927	      0.02000000	      0.03552912	      0.25320424	      0.09386187	      0.82165248	      0.07594835	      0.02000000	      0.03834012	      0.02000000	      0.12759360	      0.02000000	      0.12270871	      0.02000000	      0.11631155
      0.53191486	      3.77028231	     -0.00000000	     -9.06686345	     -0.00000000	      3.70908125	     -0.00000000	      0.04484839	      0.00000000	      1.01158335	      0.00000000	     -0.22340009	      0.00000000	    -24.81870941	     -7.46865517	     -9.40787410	     42.00086464	     13.16919430	    -19.60815666	    -77.91790483	   -144.44404270	     -1.35992399	     -2.52102413	    -51.61171387	  -1015.70334178	      0.00000000	      0.00000000	      0.00000000	     -0.00000000	     -4.95635766	      0.00000000	    -16.61136772	      0.00000000	     -8.43483485	      0.00000000	     50.95238787	     -0.00000000	      0.88928693	     -0.00000000	    -18.90207533	     -0.00000000	     -0.00000000	      0.00000000	     -0.00000000	     -0.00000000	     -9.37291115	      0.00000000	     10.92884679	      0.00000000	     -3.91548356	      0.00000000	    -10.14984650	     -0.00000000	    -11.05969488	     -0.00000000	    -13.98141467	     -0.00000000	     29.92648919	      0.00000000	     30.75836834	      0.00000000	     -0.00000000	      0.00000000	      0.00000000	      0.00000000	     -0.13766342	     -0.00000000	     -9.87893544	     -0.00000000	    -12.94888169	     -0.00000000	     30.67721746	      0.00000000	     30.30944903	     -0.00000000	      0.00000000	      0.00000000	      0.00000000	      0.00000000	      0.02000000	      0.02000000	      0.14984658	      0.02000000	      0.02000000	      0.13044331	      0.02000000	      0.02000000	      0.02000000	      0.09972314	      0.02000000	      0.02202623	      0.09791156	      0.02200199	      0.10906887	      0.02000000	      0.03523017	      0.02000000	      0.03609975	      0.02000000	      0.06214554	      0.02000000	      0.02230717	      0.02000930	      0.02000890	      0.02000000	      0.77609811	      0.25692169	      0.10506665	      0.21385000	      0.11406872	      0.02000000	      0.03585828	      0.02000000	      0.08999315	      0.02000000	      0.04223349	      0.02000000	      0.04626390	      0.03894474	      0.02598885	      0.02000000	      0.08888109	      0.02209746	      0.02000000	      0.02000000	      0.05139353	      0.02000000	      0.20289255	      0.02371609	      0.01969999	      0.03782257	      0.08079404	      0.02007053	      0.10231708	      0.02000000	      0.03030876	      0.02001107	      0.03068316	      0.02005521	      0.03542701	      0.02003047	      0.02979447	      0.02200398	      0.02407975	      0.14296147	      0.02000000	      0.02000000	      0.14587394	      0.02000000	      0.02002053	      0.02000000	      0.06819645	      0.31366807	      0.36867100	      0.07640830	      0.05741242	      0.09413056	      0.02000000	      0.04334725	      0.02000000	      0.04679110	      0.02009949	      0.04296619	      0.02013907	      0.03415426	      0.02000000	      0.02000000	      0.02000000	      0.02000000	      0.02000000	      0.02003406	      0.05954954	      0.04469673	      0.02401357	      0.02327889	      0.12307250	      0.45316141	      0.02000000	      0.04908760	      0.02000000	      0.05351535	      0.02206142	      0.01102020	      0.39382767	      0.02000000	      0.10521578	      0.32799444	      0.02208437	      0.03231227	      0.02207018	      0.18738929	      0.02000000	      0.03552912	      0.25320424	      0.09386187	      0.82165248	      0.07594835	      0.02000000	      0.03834012	      0.02000000	      0.12759360	      0.02000000	      0.12270871	      0.02000000	      0.11631155
